<svg xmlns="http://www.w3.org/2000/svg" xmlns:xlink="http://www.w3.org/1999/xlink" version="1.1" viewBox="0 0 24 30" x="0px" y="0px"><g fill="#000"><path d="M2.5,12c0,-5.24671 4.25329,-9.5 9.5,-9.5c5.2467,0 9.5,4.25329 9.5,9.5c0,1.1707 -0.2115,2.2908 -0.598,3.325c-0.0966,0.2587 0.0347,0.5467 0.2934,0.6434c0.2586,0.0966 0.5467,-0.0347 0.6434,-0.2934c0.4276,-1.1445 0.6612,-2.383 0.6612,-3.675c0,-5.79899 -4.701,-10.5 -10.5,-10.5c-5.79899,0 -10.5,4.70101 -10.5,10.5c0,5.799 4.70101,10.5 10.5,10.5c0.5348,0 1.0605,-0.04 1.5744,-0.1173c0.273,-0.0411 0.4611,-0.2958 0.42,-0.5688c-0.041,-0.2731 -0.2957,-0.4612 -0.5688,-0.4201c-0.4647,0.0699 -0.9408,0.1062 -1.4256,0.1062c-5.24671,0 -9.5,-4.2533 -9.5,-9.5Z"/><path d="M17.4393,17.7322c-0.1952,-0.1952 -0.5118,-0.1952 -0.7071,0c-0.1952,0.1953 -0.1952,0.5119 0,0.7071l1.0607,1.0607l-1.0606,1.0607c-0.1953,0.1953 -0.1953,0.5118 0,0.7071c0.1952,0.1953 0.5118,0.1953 0.7071,0l1.0606,-1.0607l1.0607,1.0606c0.1952,0.1953 0.5118,0.1953 0.7071,0c0.1952,-0.1952 0.1952,-0.5118 0,-0.7071l-1.0607,-1.0606l1.0607,-1.0606c0.1952,-0.1953 0.1952,-0.5119 0,-0.7071c-0.1953,-0.1953 -0.5119,-0.1953 -0.7071,0l-1.0607,1.0606l-1.0607,-1.0607Z"/><path fill-rule="evenodd" d="M10.2572,8.57125c-0.1544,-0.09268 -0.34679,-0.0951 -0.50355,-0.00635c-0.15675,0.08875 -0.25365,0.25496 -0.25365,0.4351v6c0,0.1801 0.0969,0.3463 0.25365,0.4351c0.15676,0.0888 0.34915,0.0863 0.50355,-0.0064l5,-3c0.1507,-0.0903 0.2428,-0.2531 0.2428,-0.4287c0,-0.1756 -0.0921,-0.3384 -0.2428,-0.4287l-5,-3.00005Zm3.771,3.42875l-3.5282,2.1169v-4.23381l3.5282,2.11691Z"/></g><text x="0" y="39" fill="#000000" font-size="5px" font-weight="bold" font-family="'Helvetica Neue', Helvetica, Arial-Unicode, Arial, Sans-serif">Created by icon 54</text><text x="0" y="44" fill="#000000" font-size="5px" font-weight="bold" font-family="'Helvetica Neue', Helvetica, Arial-Unicode, Arial, Sans-serif">from the Noun Project</text></svg>